PathFileType	4	(X/Y/Z)	/home/abdul/Desktop/myosuite/custom_workspace/IK/output/S3_12_3.trc
DataRate	CameraRate	NumFrames	NumMarkers	Units	OrigDataRate	OrigDataStartFrame	OrigNumFrames
200.0	200.0	45	3	mm	200.0	835	1113
Frame#	Time	V_Shoulder			V_Elbow			V_Wrist		
		X1	Y1	Z1	X2	Y2	Z2	X3	Y3	Z3

835	4.17	-128.51836051766833	657.2177348914889	316.3647611781643	-326.3449207976231	471.3512671520221	70.0101085675256	-129.10455052905678	238.41531741890566	76.70735614773946
836	4.175	-128.55360190395564	657.1778153539989	316.33304900105037	-326.17482394115166	471.24471037473216	69.89038324606096	-128.9007304024321	238.03976760741438	76.11953577372083
837	4.18	-128.58786417254132	657.1382260179688	316.30251225338225	-326.00333950643926	471.1341998962171	69.77584903367926	-128.6921185531571	237.65862001905575	75.5456969870785
838	4.185	-128.6211304703688	657.0988689412114	316.27312093405595	-325.8304352482844	471.01984100419645	69.66621104856304	-128.47900179356697	237.27181645454982	74.98520496596902
839	4.19	-128.65338433679142	657.0596484533041	316.2448444432452	-325.6560873792522	470.90174499595616	69.5611807716868	-128.2616708239288	236.8793244800853	74.43742837773661
840	4.195	-128.68460976187725	657.0204713586062	316.2176516632867	-325.4802805575192	470.78002896202037	69.46047646029274	-128.0404194119244	236.48113731327874	73.9017408376841
841	4.2	-128.71479124527733	656.9812471312674	316.19151103908035	-325.30300784828825	470.6548155538312	69.36382353095586	-127.81554357084329	236.07727364430932	73.37752235245283
842	4.205	-128.74391385538877	656.9418881018476	316.1663906577233	-325.1242706595409	470.5262327362816	69.27095491215533	-127.58734073988084	235.66777739234288	72.86416074329068
843	4.21	-128.77196328854066	656.9023096351993	316.14225832710645	-324.9440786529909	470.3944135260106	69.1816113663687	-127.35610896994457	235.25271739765174	72.3610530445722
844	4.215	-128.7989259279242	656.8624302992905	316.11908165321785	-324.76244963119524	470.25949571644344	69.09554178180099	-127.12214611836316	234.8321870501283	71.8676068730382
845	4.22	-128.82478890198666	656.8221720246769	316.09682811590665	-324.5794094018628	470.12162159061364	69.01250343395387	-126.8857490558689	234.40630385518247	71.38324176334575
846	4.225	-128.8495401420065	656.7814602543691	316.07546514287725	-324.3949916204826	469.98093762286743	68.93226221732908	-126.64721288918548	233.97520893829693	70.90739046565986
847	4.23	-128.87316843856627	656.7402240838647	316.05496018169856	-324.20923761246297	469.8375941706014	68.8545928476461	-126.4068302025013	233.5390664897954	70.43950020117592
848	4.235	-128.89566349664156	656.698396391155	316.0352807696269	-324.02219617604123	469.6917451572318	68.77927903503544	-126.1648903210397	233.09806315164772	69.9790338716353
849	4.24	-128.91701598902554	656.6559139565403	316.0163946010598	-323.83392336727934	469.5435477476351	68.70611362874763	-125.92167859985915	232.65240734839492	69.52547121908486
850	4.245	-128.93721760781253	656.6127175721307	315.99826959245445	-323.64448226851454	469.3931620173378	68.63489873399092	-125.67747574092098	232.20232856452304	69.07830993233287
851	4.25	-128.9562611136694	656.5687521409326	315.9808739445603	-323.453942741673	469.24075061676035	68.56544580158044	-125.43255714135864	231.74807657084472	68.63706669676759
852	4.255	-128.97414038262914	656.5239667654592	315.96417620183644	-323.2623811678931	469.0864784318454	68.49757569114686	-125.18719227576324	231.28992060266228	68.20127818443021
853	4.26	-128.99085045014917	656.4783148258344	315.9481453089384	-323.06988017492864	468.9305122424164	68.4311187087128	-124.94164411517305	230.8281484926802	67.77050198146893
854	4.265	-129.0063875521852	656.4317540473933	315.93275066418147	-322.87652835382283	468.77302037962284	68.36591461950151	-124.69616858531542	230.36306576181255	67.34431745034425
855	4.27	-129.02074916304295	656.3842465578101	315.91796216990264	-322.6824199663535	468.61417238383194	68.30181263689316	-124.45101406650025	229.89499467118503	66.92232652440727
856	4.275	-129.0339340297795	656.3357589338215	315.90375027966223	-322.4876546447521	468.4541386643227	68.23867138849099	-124.20642093740761	229.42427323876632	66.50415443272973
857	4.28	-129.04594220294067	656.2862622376364	315.89008604224495	-322.2923370851943	468.29309016212665	68.17635886030052	-123.96262116484533	228.9512542241735	66.08945035332701
858	4.285	-129.0567750634336	656.2357320431616	315.8769411424361	-322.096576736545	468.1311980173415	68.11475232006211	-123.71983794137864	228.47630408528647	65.6778879931817
859	4.29	-129.066435345349	656.1841484521925	315.8642879385672	-321.9004874858199	467.9686332422222	68.0537382208086	-123.47828537255296	227.99980191037065	65.26916609374514
860	4.295	-129.07492715456388	656.1314961007514	315.8520994968405	-321.7041873417963	467.80556640131954	67.99321208574639	-123.23816821524278	227.52213832945097	64.86300886086454
861	4.3	-129.08225598297213	656.0777641557811	315.8403496224587	-321.50779811816926	467.6421672998983	67.93307837558042	-122.9996816684667	227.04371440869934	64.45916631835642
862	4.305	-129.08842871820872	656.0229463024255	315.82901288760155	-321.3114451176057	467.47860468182415	67.87325033941957	-122.76301121780934	226.5649405315949	64.05741458471906
863	4.31	-129.09345364875196	655.9670407221528	315.81806465630524	-321.1152568179991	467.31504593805687	67.81364985041182	-122.5283325343868	226.08623527059126	63.65755607274751
864	4.315	-129.09734046430768	655.910050061999	315.80748110631276	-320.9193645621709	467.1516568268292	67.75420722726481	-122.29581142908515	225.60802425297803	63.25941961208598
865	4.32	-129.1001002513998	655.8519813952308	315.7972392479798	-320.7239022522007	466.98860120652967	67.69486104281	-122.06560386258894	225.13073902455858	62.862860495018836
866	4.325	-129.10174548411194	655.7928461737446	315.7873169403289	-320.5290060495008	466.8260407822396	67.63555792076666	-121.83785601150285	224.65481591467739	62.46776044606693
867	4.33	-129.10229000994727	655.7326601725343	315.7776929043571	-320.33481408167734	466.6641348667995	67.57625232185457	-121.61270439065174	224.18069490602812	62.07402751621723
868	4.335	-129.101749030794	655.6714434265813	315.7683467337123	-320.1414661571392	466.5030401572041	67.51690632039369	-121.39027603142569	223.70881851254944	61.681595902870356
869	4.34	-129.1001390790068	655.6092201605214	315.7592589028612	-319.94910348833906	466.34291052704356	67.45748937251324	-121.17068871581571	223.23963066858	61.290425696843
870	4.345	-129.09747798863665	655.5460187114714	315.7504107728806	-319.75786842444086	466.18389683561895	67.39797807707369	-120.95405126556454	222.7735756322916	60.90050255800895
871	4.35	-129.09378486186347	655.4818714453897	315.74178459500945	-319.5679041941217	466.02614675427503	67.33835593038211	-120.74046388563514	222.31109690625465	60.51183732140295
872	4.355	-129.089080030708	655.4168146673663	315.73336351210395	-319.3793546591255	465.86980461039747	67.27861307575427	-120.53001856097816	221.8526361778155	60.12446553584568
873	4.36	-129.08338501412234	655.3508885262357	315.72513155814323	-319.19236407909096	465.71501124942876	67.21874604894765	-120.32279950535883	221.39863228177995	59.73844693737472
874	4.365	-129.07672247057985	655.2841369139086	315.71707365593625	-319.00707688808416	465.561903915159	67.15875752045608	-120.11888366078476	220.94952018770428	59.35386485998441
875	4.37	-129.06911614630607	655.2166073598264	315.7091756131808	-318.82363748317005	465.4106161484498	67.09865603562118	-119.9183412458591	220.5057300138961	58.97082558638763
876	4.375	-129.06059081931497	655.1483509209309	315.70142411702915	-318.64219002526374	465.2612777044499	67.03845575347763	-119.72123635116913	220.0676860700254	58.58945764171206
877	4.38	-129.05117223943353	655.0794220675492	315.6938067273118	-318.4628782524046	465.11401448826075	66.97817618520881	-119.52762757960905	219.63580593003763	58.209911033233055
878	4.385	-129.0408870645189	655.0098785655815	315.68631186857107	-318.2858453055082	464.96894850891016	66.9178419330471	-119.33756872932949	219.21049953685437	57.83235643942376
879	4.39	-129.0297627930913	654.9397813553738	315.6789288210537	-318.1112335665527	464.8261978513929	66.8574824304093	-119.15110951680315	218.79216834014053	57.456984351768575
